<?xml version="1.0" standalone="no"?>
<!DOCTYPE svg PUBLIC "-//W3C//DTD SVG 20010904//EN"
 "http://www.w3.org/TR/2001/REC-SVG-20010904/DTD/svg10.dtd">
<svg version="1.0" xmlns="http://www.w3.org/2000/svg"
 width="403.000000pt" height="386.000000pt" viewBox="0 0 403.000000 386.000000"
 preserveAspectRatio="xMidYMid meet">

<g transform="translate(0.000000,386.000000) scale(0.100000,-0.100000)"
fill="#000000" stroke="none">
<path d="M1925 3843 c-276 -26 -487 -90 -760 -231 -59 -30 -219 -146 -299
-216 -95 -83 -198 -195 -290 -318 -68 -91 -88 -125 -163 -278 -137 -280 -192
-521 -193 -833 0 -370 101 -711 308 -1032 163 -254 452 -508 721 -632 53 -25
141 -66 196 -93 55 -26 117 -50 138 -54 21 -4 35 -11 32 -17 -4 -5 3 -9 14 -9
11 0 23 -4 26 -10 3 -5 21 -10 40 -10 19 0 37 -5 40 -11 8 -11 -85 -8 -225 9
-41 5 -79 5 -84 0 -6 -4 2 -8 18 -8 15 0 25 -4 21 -10 -4 -6 7 -10 27 -10 18
0 47 -4 65 -9 17 -5 240 -11 495 -12 419 -3 470 -2 538 15 41 10 98 22 125 28
28 5 55 14 60 20 11 10 -17 7 -145 -19 -89 -17 -302 -34 -312 -24 -4 4 2 8 14
8 13 1 32 6 43 12 11 5 72 22 135 37 89 21 150 44 266 100 83 41 154 74 157
74 22 0 223 130 317 206 241 193 362 343 513 634 239 461 251 1090 30 1600
-226 522 -684 900 -1272 1050 -152 39 -430 59 -596 43z m376 -103 c35 -7 79
-21 97 -31 18 -11 30 -14 27 -9 -4 6 9 4 27 -4 18 -8 61 -20 96 -27 48 -9 68
-19 87 -41 13 -15 38 -31 54 -34 17 -4 31 -10 31 -15 0 -14 33 -49 47 -49 18
0 16 -35 -2 -50 -12 -10 -18 -10 -30 0 -13 10 -15 9 -15 -10 0 -21 -3 -22 -50
-18 -32 3 -56 0 -69 -8 -10 -7 -37 -16 -60 -20 -23 -4 -44 -11 -47 -15 -3 -5
-22 -6 -42 -3 -32 5 -41 2 -66 -25 -34 -35 -42 -37 -67 -15 -17 15 -20 15 -42
-2 -13 -11 -24 -23 -25 -29 -1 -5 -12 -10 -25 -10 -13 -1 -32 -10 -44 -22 -19
-19 -26 -20 -58 -10 -28 8 -41 8 -56 -1 -10 -7 -26 -12 -34 -12 -8 0 -15 -4
-15 -10 0 -5 -13 -10 -29 -10 -17 0 -33 -4 -36 -10 -3 -5 -17 -10 -30 -10 -13
0 -27 -5 -30 -10 -10 -15 -150 -80 -174 -80 -11 0 -24 -6 -28 -13 -13 -22 -73
-39 -89 -26 -16 13 -34 4 -34 -17 0 -8 -4 -14 -8 -14 -11 0 -29 -44 -93 -225
-65 -181 -72 -202 -104 -310 -14 -49 -62 -205 -106 -345 -44 -140 -84 -271
-89 -290 -5 -19 -25 -84 -44 -145 -73 -233 -116 -382 -117 -401 0 -10 -12 -44
-27 -74 -32 -65 -50 -71 -143 -43 -58 17 -91 44 -69 58 5 3 10 19 10 36 0 16
11 64 25 106 29 88 52 162 96 313 17 58 62 204 100 325 150 475 216 711 224
799 6 66 6 67 -14 54 -12 -7 -21 -16 -21 -21 0 -4 -17 -15 -37 -25 -20 -9 -47
-27 -60 -38 -13 -12 -31 -21 -41 -20 -13 1 -16 -6 -14 -31 1 -21 -3 -33 -10
-34 -7 -1 -18 -2 -24 -3 -15 -2 -60 -56 -68 -84 -4 -12 -11 -20 -16 -17 -4 3
-14 -2 -21 -11 -7 -9 -21 -13 -34 -10 -22 6 -65 -31 -65 -55 0 -7 -10 -9 -26
-5 -21 6 -25 4 -21 -8 4 -9 2 -16 -3 -16 -5 0 -15 -6 -22 -12 -8 -7 -27 -20
-43 -28 -19 -10 -34 -28 -40 -48 -5 -19 -16 -32 -26 -32 -50 0 -99 -54 -99
-111 0 -16 -4 -29 -10 -29 -5 0 -7 13 -3 30 5 29 5 30 -36 30 -45 0 -56 21
-23 46 16 13 16 13 -2 14 -13 0 -17 5 -13 20 6 23 -3 26 -22 8 -7 -7 -3 7 10
32 13 25 25 52 26 60 13 70 19 127 16 140 -4 13 -4 13 6 0 9 -13 11 -12 11 5
-1 21 56 139 77 163 7 7 13 18 13 24 0 5 10 18 23 28 12 10 31 35 42 56 22 44
74 115 91 126 7 4 46 49 87 100 42 51 95 109 119 129 113 94 158 128 184 142
16 9 54 34 84 57 50 37 106 67 260 137 79 37 90 41 139 53 23 6 49 9 56 6 8
-3 15 0 18 7 12 37 471 56 628 27z m-216 -481 c-8 -12 -35 -12 -35 0 0 11 22
20 33 14 4 -2 5 -9 2 -14z m37 -148 c13 -5 84 -28 158 -51 288 -89 360 -114
510 -175 262 -107 346 -160 486 -308 189 -199 275 -500 234 -817 -47 -360
-221 -664 -473 -828 -129 -83 -289 -139 -423 -149 -140 -10 -446 52 -754 152
-107 35 -244 79 -305 97 -90 28 -111 38 -113 55 -2 11 13 70 32 129 19 60 63
201 97 314 143 471 160 527 178 580 10 30 30 93 44 140 14 47 39 132 57 190
18 58 56 184 85 280 29 96 59 191 68 212 8 20 21 62 27 95 20 94 34 107 92 84z
m-1565 -757 c-3 -3 -12 -4 -19 -1 -8 3 -5 6 6 6 11 1 17 -2 13 -5z m-85 -26
c-6 -6 -15 -8 -19 -4 -4 4 -1 11 7 16 19 12 27 3 12 -12z"/>
<path d="M450 2495 c-7 -9 -11 -18 -8 -20 3 -3 11 1 18 10 7 9 11 18 8 20 -3
3 -11 -1 -18 -10z"/>
<path d="M452 2391 c-11 -6 -10 -10 4 -15 20 -8 32 0 18 14 -5 5 -15 5 -22 1z"/>
<path d="M2185 2833 c-4 -10 -11 -31 -15 -48 -13 -46 -119 -394 -195 -635
-101 -323 -131 -417 -191 -620 -31 -102 -64 -211 -75 -243 -10 -31 -19 -62
-19 -68 0 -16 91 -52 250 -98 80 -23 174 -51 210 -61 133 -39 328 -64 439 -55
172 13 315 80 439 205 108 109 164 206 221 380 67 209 74 367 24 550 -19 71
-93 219 -135 271 -112 139 -315 249 -696 375 -204 68 -245 75 -257 47z"/>
</g>
</svg>
